<svg xmlns="http://www.w3.org/2000/svg" viewBox="0 0 64 64">
  <defs>
    <linearGradient id="g" x1="0" y1="0" x2="1" y2="1">
      <stop offset="0%" stop-color="#24ff8a"/>
      <stop offset="100%" stop-color="#0f2a1c"/>
    </linearGradient>
  </defs>
  <rect x="10" y="10" width="44" height="44" rx="6" fill="url(#g)" stroke="#1a3a2b"/>
  <rect x="18" y="18" width="28" height="28" rx="4" fill="#0a1610" stroke="#1a3a2b"/>
  <rect x="24" y="24" width="16" height="16" rx="2" fill="#12251b" stroke="#24ff8a"/>
  <g stroke="#24ff8a">
    <path d="M4 20h8M4 32h8M4 44h8M52 4v8M40 4v8M28 4v8M16 4v8M60 20h-8M60 32h-8M60 44h-8M52 52v8M40 52v8M28 52v8M16 52v8"/>
  </g>
</svg>

